<svg width="112" height="117" viewBox="0 0 112 117" fill="none" xmlns="http://www.w3.org/2000/svg">
<g clip-path="url(#clip0_59_639)">
<path fill-rule="evenodd" clip-rule="evenodd" d="M56.2572 106.79C81.3505 106.79 101.693 86.448 101.693 61.3547C101.693 36.2615 81.3505 15.9194 56.2572 15.9194C31.164 15.9194 10.8218 36.2615 10.8218 61.3547C10.8218 86.448 31.164 106.79 56.2572 106.79Z" stroke="#3AD29F" stroke-width="0.305962" stroke-dasharray="1.84 1.84"/>
<path fill-rule="evenodd" clip-rule="evenodd" d="M56.2572 116.428C86.6733 116.428 111.33 91.7708 111.33 61.3547C111.33 30.9387 86.6733 6.28155 56.2572 6.28155C25.8411 6.28155 1.18402 30.9387 1.18402 61.3547C1.18402 91.7708 25.8411 116.428 56.2572 116.428Z" stroke="#3AD29F" stroke-width="0.305962" stroke-dasharray="1.84 1.84"/>
<path d="M93.1165 78.9002C93.118 72.4882 88.2398 67.1284 81.856 66.5281C75.4723 65.9278 69.6803 70.2842 68.4865 76.584L30.304 75.5483L30.7231 82.1082C30.7231 82.1082 25.2785 94.671 53.8936 98.0182V110.716H86.9743V89.6042C90.7755 87.3784 93.1129 83.3051 93.1165 78.9002Z" fill="url(#paint0_linear_59_639)"/>
<path d="M32.0342 82.3835C32.0342 82.3835 26.8206 94.414 54.2241 97.6235V109.789H85.905V77.5723L31.6273 76.1006L32.0342 82.3835Z" fill="#FFCBB4"/>
<path d="M47.8678 32.1797C46.1481 34.8933 42.5597 35.7087 39.8362 34.0048L22.8263 22.7959C20.1127 21.0762 19.2973 17.4879 21.0012 14.7643C22.7206 12.0545 26.3044 11.2395 29.0266 12.9393L46.0366 24.1482C48.7523 25.8659 49.5706 29.4546 47.8678 32.1797Z" fill="url(#paint1_linear_59_639)"/>
<path d="M46.9253 31.5678C45.3269 34.0901 41.9915 34.8481 39.4599 33.2644L23.6431 22.8372C21.1208 21.2387 20.3628 17.9033 21.9466 15.3717C23.5451 12.8493 26.8805 12.0914 29.4121 13.6751L45.2257 24.0962C47.7529 25.6939 48.5127 29.0341 46.9253 31.5678Z" fill="#FFCBB4"/>
<path d="M79.8912 91.2075C86.462 91.2075 91.7886 85.8809 91.7886 79.3101C91.7886 72.7394 86.462 67.4128 79.8912 67.4128C73.3205 67.4128 67.9939 72.7394 67.9939 79.3101C67.9939 85.8809 73.3205 91.2075 79.8912 91.2075Z" fill="#FFCBB4"/>
<path d="M77.7495 0.840008H32.1734C31.1384 0.840008 30.2994 1.67903 30.2994 2.71403V87.9949C30.2994 89.0299 31.1384 89.8689 32.1734 89.8689H77.7495C78.7845 89.8689 79.6235 89.0299 79.6235 87.9949V2.71403C79.6235 1.67903 78.7845 0.840008 77.7495 0.840008Z" fill="url(#paint2_linear_59_639)"/>
<path d="M76.8684 2.04397H33.0515C31.8991 2.04397 30.9648 2.9782 30.9648 4.13063V86.5813C30.9648 87.7338 31.8991 88.668 33.0515 88.668H76.8684C78.0208 88.668 78.955 87.7338 78.955 86.5813V4.13063C78.955 2.9782 78.0208 2.04397 76.8684 2.04397Z" fill="white"/>
<path d="M67.0164 4.2163C66.7295 6.1145 65.1009 7.51966 63.1812 7.52528H46.6072C44.688 7.51891 43.0602 6.11393 42.7735 4.2163H33.9924C33.5089 4.2163 33.045 4.40768 32.703 4.74941C32.361 5.09115 32.1688 5.55482 32.1688 6.03831V84.6706C32.1688 85.1541 32.3602 85.6179 32.7019 85.9599C33.0437 86.302 33.5073 86.4941 33.9908 86.4941H75.9291C76.4126 86.4941 76.8764 86.3027 77.2184 85.961C77.5604 85.6193 77.7526 85.1556 77.7526 84.6721V6.03984C77.7526 5.55635 77.5612 5.09252 77.2195 4.7505C76.8778 4.40847 76.4141 4.2163 75.9306 4.2163H67.0164Z" fill="#E9ECFF"/>
<path d="M60.0695 5.25198H49.9865C49.8175 5.25198 49.6805 5.38897 49.6805 5.55795V5.61455C49.6805 5.78353 49.8175 5.92051 49.9865 5.92051H60.0695C60.2385 5.92051 60.3755 5.78353 60.3755 5.61455V5.55795C60.3755 5.38897 60.2385 5.25198 60.0695 5.25198Z" fill="#DBDBDB"/>
<path d="M62.6473 6.0181C62.9225 6.0181 63.1457 5.79496 63.1457 5.5197C63.1457 5.24444 62.9225 5.0213 62.6473 5.0213C62.372 5.0213 62.1489 5.24444 62.1489 5.5197C62.1489 5.79496 62.372 6.0181 62.6473 6.0181Z" fill="#DBDBDB"/>
<path d="M87.5816 81.409C84.1288 82.2076 81.7591 79.9557 80.9606 76.5045L73.027 47.0449C72.2376 43.5802 74.3938 40.1283 77.8535 39.3178C81.3182 38.5284 84.7701 40.6846 85.5806 44.1444L92.0548 74.3643C92.8533 77.817 91.0329 80.6105 87.5816 81.409Z" fill="url(#paint3_linear_59_639)"/>
<path d="M84.6905 44.8655C84.0174 41.9522 81.11 40.1362 78.1967 40.8093C75.2833 41.4824 73.4673 44.3898 74.1404 47.3031L81.4357 78.8773C82.1088 81.7906 85.0162 83.6066 87.9295 82.9335C90.8429 82.2604 92.6589 79.353 91.9858 76.4397L84.6905 44.8655Z" fill="#FFCBB4"/>
<path d="M91.7382 105.808H46.4557V116.364H91.7382V105.808Z" fill="url(#paint4_linear_59_639)"/>
<path d="M90.5143 107.032H47.6796V115.293H90.5143V107.032Z" fill="#4D8AF0"/>
<path d="M41.2651 63.7826C39.5663 66.4639 36.0209 67.2698 33.3299 65.5862L21.9221 58.2049C19.2408 56.5061 18.4349 52.9607 20.1185 50.2697C21.8173 47.5884 25.3627 46.7825 28.0536 48.4661L39.4614 55.8474C42.1428 57.5462 42.9487 61.0916 41.2651 63.7826Z" fill="url(#paint5_linear_59_639)"/>
<path d="M38.4013 79.4065C36.6874 82.1125 33.1097 82.9259 30.3943 81.227L23.3281 76.0746C20.6221 74.3607 19.8087 70.783 21.5076 68.0676C23.2215 65.3616 26.7992 64.5482 29.5146 66.2471L36.5808 71.401C39.2858 73.1149 40.0992 76.6914 38.4013 79.4065Z" fill="url(#paint6_linear_59_639)"/>
<g opacity="0.5">
<path d="M54.9599 59.1151C62.5589 59.1151 68.719 52.9549 68.719 45.356C68.719 37.757 62.5589 31.5969 54.9599 31.5969C47.361 31.5969 41.2008 37.757 41.2008 45.356C41.2008 52.9549 47.361 59.1151 54.9599 59.1151Z" fill="url(#paint7_linear_59_639)"/>
</g>
<path d="M54.9599 58.3058C62.1119 58.3058 67.9098 52.508 67.9098 45.356C67.9098 38.204 62.1119 32.4061 54.9599 32.4061C47.8079 32.4061 42.0101 38.204 42.0101 45.356C42.0101 52.508 47.8079 58.3058 54.9599 58.3058Z" fill="#69F0AE"/>
<path d="M49.3394 43.6273L54.1951 48.079L61.0746 37.9624L63.504 39.9863L54.1951 52.1269L47.3155 44.4381L49.3394 43.6273Z" fill="white"/>
<path d="M37.8306 79.0225C36.2322 81.5449 32.8968 82.3029 30.3652 80.7191L23.7747 75.9216C21.2524 74.3231 20.4944 70.9877 22.0782 68.4561C23.6767 65.9338 27.0121 65.1758 29.5437 66.7596L36.1326 71.5662C38.6499 73.1638 39.4079 76.4925 37.8306 79.0225Z" fill="#FFCBB4"/>
<path d="M40.6379 63.3772C39.0394 65.8995 35.704 66.6575 33.1724 65.0737L22.4392 58.1284C19.9169 56.5299 19.1589 53.1945 20.7427 50.6629C22.3411 48.1405 25.6765 47.3826 28.2081 48.9663L38.9413 55.9117C41.4637 57.5101 42.2216 60.8456 40.6379 63.3772Z" fill="#FFCBB4"/>
<path d="M44.2145 48.232C42.5074 50.9251 38.946 51.7343 36.2427 50.0433L21.786 40.6304C19.0929 38.9232 18.2837 35.3618 19.9747 32.6585C21.6818 29.9654 25.2433 29.1562 27.9465 30.8473L42.4032 40.2602C45.0963 41.9673 45.9055 45.5288 44.2145 48.232Z" fill="url(#paint8_linear_59_639)"/>
<path d="M43.4466 47.7425C41.8481 50.2648 38.5127 51.0228 35.9811 49.439L22.4408 40.6227C19.9184 39.0243 19.1604 35.6889 20.7442 33.1573C22.3427 30.6349 25.6781 29.8769 28.2097 31.4607L41.7485 40.277C44.2714 41.875 45.0301 45.2105 43.4466 47.7425Z" fill="#FFCBB4"/>
</g>
<defs>
<linearGradient id="paint0_linear_59_639" x1="61.7125" y1="110.723" x2="61.7125" y2="66.475" gradientUnits="userSpaceOnUse">
<stop stop-color="#808080" stop-opacity="0.25"/>
<stop offset="0.54" stop-color="#808080" stop-opacity="0.12"/>
<stop offset="1" stop-color="#808080" stop-opacity="0.1"/>
</linearGradient>
<linearGradient id="paint1_linear_59_639" x1="34.433" y1="34.8967" x2="34.433" y2="12.0505" gradientUnits="userSpaceOnUse">
<stop stop-color="#808080" stop-opacity="0.25"/>
<stop offset="0.54" stop-color="#808080" stop-opacity="0.12"/>
<stop offset="1" stop-color="#808080" stop-opacity="0.1"/>
</linearGradient>
<linearGradient id="paint2_linear_59_639" x1="54.9615" y1="89.8674" x2="54.9615" y2="0.838479" gradientUnits="userSpaceOnUse">
<stop stop-color="#808080" stop-opacity="0.25"/>
<stop offset="0.54" stop-color="#808080" stop-opacity="0.12"/>
<stop offset="1" stop-color="#808080" stop-opacity="0.1"/>
</linearGradient>
<linearGradient id="paint3_linear_59_639" x1="82.5516" y1="81.5681" x2="82.5516" y2="39.1526" gradientUnits="userSpaceOnUse">
<stop stop-color="#808080" stop-opacity="0.25"/>
<stop offset="0.54" stop-color="#808080" stop-opacity="0.12"/>
<stop offset="1" stop-color="#808080" stop-opacity="0.1"/>
</linearGradient>
<linearGradient id="paint4_linear_59_639" x1="69.1" y1="116.361" x2="69.1" y2="105.805" gradientUnits="userSpaceOnUse">
<stop stop-color="#808080" stop-opacity="0.25"/>
<stop offset="0.54" stop-color="#808080" stop-opacity="0.12"/>
<stop offset="1" stop-color="#808080" stop-opacity="0.1"/>
</linearGradient>
<linearGradient id="paint5_linear_59_639" x1="30.6895" y1="66.4658" x2="30.6895" y2="47.588" gradientUnits="userSpaceOnUse">
<stop stop-color="#808080" stop-opacity="0.25"/>
<stop offset="0.54" stop-color="#808080" stop-opacity="0.12"/>
<stop offset="1" stop-color="#808080" stop-opacity="0.1"/>
</linearGradient>
<linearGradient id="paint6_linear_59_639" x1="29.9552" y1="82.1143" x2="29.9552" y2="65.3583" gradientUnits="userSpaceOnUse">
<stop stop-color="#808080" stop-opacity="0.25"/>
<stop offset="0.54" stop-color="#808080" stop-opacity="0.12"/>
<stop offset="1" stop-color="#808080" stop-opacity="0.1"/>
</linearGradient>
<linearGradient id="paint7_linear_59_639" x1="54.9599" y1="59.1151" x2="54.9599" y2="31.5953" gradientUnits="userSpaceOnUse">
<stop stop-color="#808080" stop-opacity="0.25"/>
<stop offset="0.54" stop-color="#808080" stop-opacity="0.12"/>
<stop offset="1" stop-color="#808080" stop-opacity="0.1"/>
</linearGradient>
<linearGradient id="paint8_linear_59_639" x1="32.0938" y1="50.9321" x2="32.0938" y2="29.9691" gradientUnits="userSpaceOnUse">
<stop stop-color="#808080" stop-opacity="0.25"/>
<stop offset="0.54" stop-color="#808080" stop-opacity="0.12"/>
<stop offset="1" stop-color="#808080" stop-opacity="0.1"/>
</linearGradient>
<clipPath id="clip0_59_639">
<rect width="111.143" height="116.127" fill="white" transform="translate(0.685608 0.84)"/>
</clipPath>
</defs>
</svg>
